<svg width="512" height="512" viewBox="0 0 512 512" xmlns="http://www.w3.org/2000/svg">
  <rect width="512" height="512" fill="#121212"/>
  <path d="M256 64C150 64 64 150 64 256s86 192 192 192 192-86 192-192S362 64 256 64zm0 352c-88.2 0-160-71.8-160-160S167.8 96 256 96s160 71.8 160 160-71.8 160-160 160z" fill="#ff4500"/>
  <path d="M256 128c-70.7 0-128 57.3-128 128s57.3 128 128 128 128-57.3 128-128-57.3-128-128-128zm0 224c-53 0-96-43-96-96s43-96 96-96 96 43 96 96-43 96-96 96z" fill="#39ff14"/>
  <circle cx="256" cy="256" r="32" fill="#ffffff"/>
</svg>
